<?xml version="1.0" encoding="utf-8"?>
<!-- Generator: Adobe Illustrator 16.0.0, SVG Export Plug-In . SVG Version: 6.00 Build 0)  -->
<!DOCTYPE svg PUBLIC "-//W3C//DTD SVG 1.1//EN" "http://www.w3.org/Graphics/SVG/1.1/DTD/svg11.dtd">
<svg version="1.1" id="Layer_1" xmlns="http://www.w3.org/2000/svg" xmlns:xlink="http://www.w3.org/1999/xlink" x="0px" y="0px"
	 width="74px" height="60.667px" viewBox="30.166 19.167 74 60.667" enable-background="new 30.166 19.167 74 60.667"
	 xml:space="preserve">
<g>
	<g transform="translate(50 50) scale(0.69 0.69) rotate(0) translate(-50 -50)">
		<path fill="#FFFFFF" d="M71.626,40.415H37.484L31,36.738c-1.667-0.945-3.787-0.361-4.733,1.309
			c-0.945,1.667-0.359,3.787,1.308,4.733l7.961,4.515v36.177c0,3.066,2.488,5.554,5.556,5.554s5.557-2.485,5.557-5.554V68.818
			l10.512,17.505c0,0.003,0,0.006,0.003,0.008c1.577,2.63,4.988,3.482,7.623,1.902c2.63-1.582,3.482-4.993,1.902-7.626
			l-9.126-15.192h21.031v18.056c0,3.066,2.485,5.554,5.554,5.554c3.068,0,5.559-2.485,5.559-5.554V65.288
			c0.804-0.289,1.387-1.05,1.387-1.956V48.75l0.025-0.031L71.626,40.415z"/>
		<rect x="111.925" y="32.083" fill="#FFFFFF" width="13.89" height="2.777"/>
		
			<rect x="108.966" y="22.327" transform="matrix(-0.8673 0.4978 -0.4978 -0.8673 228.2439 -13.4201)" fill="#FFFFFF" width="13.891" height="2.777"/>
		
			<rect x="101.927" y="14.851" transform="matrix(-0.4965 0.868 -0.868 -0.4965 177.0222 -70.2008)" fill="#FFFFFF" width="13.888" height="2.779"/>
		<path fill="#FFFFFF" d="M96.649,34.86l5.556-9.723l-6.946-11.11L82.662,28.106l-6.847-1.579l1.803,7.217l-3.04,3.401l19.489,8.301
			l9.525-10.585H96.649z M89.009,30.693c-1.149,0-2.083-0.931-2.083-2.083c0-1.151,0.934-2.083,2.083-2.083
			c1.152,0,2.083,0.933,2.083,2.083C91.092,29.76,90.161,30.693,89.009,30.693z"/>
	</g>
</g>
</svg>
